<?xml version="1.0" encoding="iso-8859-1"?>
<svg xmlns="http://www.w3.org/2000/svg" viewBox="0 0 480 480">
  <defs>
    <style>
      .hideadmin-cls-1 { fill: #3490dc; }
      .hideadmin-cls-2 { fill: #fff; }
    </style>
  </defs>
  <title>hideadmin-icon</title>
  <circle class="hideadmin-cls-1" cx="240" cy="240" r="240"/>
  <path class="hideadmin-cls-2" d="M240.05,180a54.59,54.59,0,0,1,54.57,54.57,53,53,0,0,1-3.92,20l31.86,31.86A128.9,128.9,0,0,0,360,234.54a129.07,129.07,0,0,0-120-81.85,127.12,127.12,0,0,0-43.44,7.64l23.57,23.57A53,53,0,0,1,240.05,180ZM130.91,150.18l24.89,24.88,5,5A128.79,128.79,0,0,0,120,234.54a129,129,0,0,0,167.86,72.69l4.58,4.58,32,31.87,13.86-13.86L144.77,136.32Zm60.36,60.35,16.92,16.92a30.52,30.52,0,0,0-.88,7.09,32.71,32.71,0,0,0,32.74,32.75,30.54,30.54,0,0,0,7.1-.88l16.92,16.92a54.21,54.21,0,0,1-72.8-72.8Zm47-8.51,34.38,34.38.22-1.75a32.7,32.7,0,0,0-32.75-32.74Z"/>
</svg>
